# xmcd
#
# Track frame offsets:
#	150
#	13423
#	29257
#	42759
#	56438
#	71872
#	85735
#	97678
#	111811
#	127504
#	143837
#	157200
#	172812
#	183724
#	198788
#	212061
#
# Disc length: 2998 seconds
#
# Revision: 0
# Processed by: cddbd v1.5.1PL2 Copyright (c) Steve Scherf et al.
# Submitted via: audiograbber 1.83.01
#
DISCID=d20bb410
DTITLE=Jimmie Rodgers - Jimmie the Kid
DYEAR=1961
DGENRE=Country
TTITLE0=01 - Jimmie The Kid (trim 2.54)
TTITLE1=02 - Blue Yodel #12 (trim 3.29)
TTITLE2=03 - Frankie and Johnny (trim 2.58)
TTITLE3=04 - Miss the Mississippi and You (trim 3.00)
TTITLE4=05 - Blue Yodel #2 (trim 3.23)
TTITLE5=06 - Sleep Baby Sleep (trim 3.02)
TTITLE6=07 - Home Call (trim 2.37)
TTITLE7=08 - My Old  Pal (trim 3.06)
TTITLE8=09 - Looking For a New Mama (trim 3.27)
TTITLE9=10 - Memphis Yodel (trim 3.35)
TTITLE10=11 - Blue Yodel #7 (trim 2.56)
TTITLE11=12 - Mother,Queen of My Heart (trim 3.26)
TTITLE12=13 - I'm Sorry We Met (trim 2.23)
TTITLE13=14 - Blue Yodel #3 (trim 3.18)
TTITLE14=15 - Tuck Away My Lonesome Blues (trim 2.54)
TTITLE15=16 - Desert Blues (trim 2.51)
EXTD=RCA LPM-2213
EXTT0=
EXTT1=
EXTT2=
EXTT3=
EXTT4=
EXTT5=
EXTT6=
EXTT7=
EXTT8=
EXTT9=
EXTT10=
EXTT11=
EXTT12=
EXTT13=
EXTT14=
EXTT15=
PLAYORDER=
